<svg xmlns="http://www.w3.org/2000/svg" xmlns:xlink="http://www.w3.org/1999/xlink" version="1.1" x="0px" y="0px" viewBox="0 0 110 110" enable-background="new 0 0 110 110" xml:space="preserve" style="max-width:100%" height="100%"><path fill="none" d="M54,95.5c0,3.311,2.689,6,6,6s6-2.689,6-6c0-3.221-2.54-5.85-5.73-5.99C60.18,89.5,60.09,89.5,60,89.5  c-0.59,0-1.17,0.09-1.71,0.25C55.811,90.48,54,92.779,54,95.5z" style=""></path><path fill="none" d="M24.63,75.42c-1.65-1.79-4.01-2.92-6.63-2.92c-4.96,0-9,4.04-9,9s4.04,9,9,9s9-4.04,9-9  c0-1.62-0.43-3.141-1.19-4.46C25.48,76.46,25.08,75.91,24.63,75.42z" style=""></path><path fill="none" d="M66.38,24.34c0.53,0.1,1.07,0.16,1.62,0.16c4.41,0,8-3.59,8-8s-3.59-8-8-8s-8,3.59-8,8  c0,3.15,1.83,5.87,4.48,7.18C65.08,23.97,65.71,24.2,66.38,24.34z" style=""></path><path fill="none" d="M18,25.5c-3.31,0-6,2.69-6,6s2.69,6,6,6c1.79,0,3.4-0.78,4.49-2.03c0.45-0.5,0.81-1.07,1.06-1.7  C23.84,33.07,24,32.3,24,31.5C24,28.19,21.31,25.5,18,25.5z" style=""></path><path fill="none" d="M92,62.5c-3.26,0-6.13,1.75-7.7,4.359c-0.35,0.57-0.63,1.181-0.84,1.82C83.16,69.57,83,70.51,83,71.5  c0,4.96,4.04,9,9,9s9-4.04,9-9S96.96,62.5,92,62.5z" style=""></path><path d="M92,60.5c-4.08,0-7.641,2.221-9.54,5.52l-7.069-3.25C76.43,60.221,77,57.43,77,54.5c0-9.31-5.779-17.26-13.939-20.47  l2.67-7.79c0.729,0.17,1.49,0.26,2.27,0.26c5.529,0,10-4.48,10-10s-4.471-10-10-10c-5.52,0-10,4.48-10,10  c0,4.03,2.391,7.51,5.83,9.08l-2.66,7.8c-1.96-0.57-4.029-0.88-6.17-0.88c-7.53,0-14.18,3.78-18.14,9.55l-11.59-7.21  C25.74,33.82,26,32.69,26,31.5c0-4.42-3.58-8-8-8s-8,3.58-8,8s3.58,8,8,8c2.51,0,4.75-1.15,6.21-2.96l11.59,7.21  C34.02,46.92,33,50.59,33,54.5c0,4.49,1.34,8.67,3.65,12.15l-10.39,7.58c-2.02-2.291-4.97-3.73-8.26-3.73c-6.07,0-11,4.92-11,11  s4.93,11,11,11c6.08,0,11-4.92,11-11c0-2.07-0.57-4-1.56-5.65l10.4-7.58C41.87,73.29,48.06,76.5,55,76.5  c0.561,0,1.12-0.02,1.67-0.07l1.38,11.312C54.57,88.609,52,91.75,52,95.5c0,4.42,3.58,8,8,8s8-3.58,8-8c0-4.41-3.561-7.98-7.971-8  L58.65,76.189c6.938-1.149,12.789-5.561,15.908-11.609l7.07,3.26C81.221,68.98,81,70.21,81,71.5c0,6.08,4.93,11,11,11  c6.08,0,11-4.92,11-11S98.08,60.5,92,60.5z M60,16.5c0-4.41,3.59-8,8-8s8,3.59,8,8s-3.59,8-8,8c-0.55,0-1.09-0.06-1.62-0.16  c-0.67-0.14-1.3-0.37-1.899-0.66C61.83,22.37,60,19.65,60,16.5z M23.55,33.77c-0.25,0.63-0.61,1.2-1.06,1.7  c-1.09,1.25-2.7,2.03-4.49,2.03c-3.31,0-6-2.69-6-6s2.69-6,6-6s6,2.69,6,6C24,32.3,23.84,33.07,23.55,33.77z M18,90.5  c-4.96,0-9-4.04-9-9s4.04-9,9-9c2.62,0,4.98,1.13,6.63,2.92c0.45,0.49,0.85,1.04,1.18,1.62C26.57,78.359,27,79.88,27,81.5  C27,86.46,22.96,90.5,18,90.5z M60,89.5c0.09,0,0.18,0,0.27,0.01C63.46,89.65,66,92.279,66,95.5c0,3.311-2.689,6-6,6s-6-2.689-6-6  c0-2.721,1.811-5.02,4.29-5.75C58.83,89.59,59.41,89.5,60,89.5z M73.57,61.93c-0.25,0.62-0.521,1.221-0.84,1.812  c-2.83,5.42-8.08,9.39-14.32,10.46c-0.65,0.119-1.311,0.199-1.98,0.24c-0.47,0.039-0.95,0.06-1.43,0.06  c-6.27,0-11.87-2.899-15.54-7.42c-0.42-0.521-0.82-1.062-1.18-1.62C36.2,62.311,35,58.55,35,54.5c0-3.52,0.91-6.82,2.51-9.69  c0.32-0.59,0.67-1.16,1.06-1.7c3.61-5.2,9.63-8.61,16.43-8.61c1.91,0,3.77,0.27,5.52,0.78c0.642,0.18,1.271,0.39,1.892,0.65  C69.779,38.87,75,46.09,75,54.5C75,57.13,74.49,59.63,73.57,61.93z M92,80.5c-4.96,0-9-4.04-9-9c0-0.99,0.16-1.93,0.46-2.82  c0.21-0.64,0.49-1.25,0.84-1.818c1.57-2.61,4.44-4.36,7.7-4.36c4.96,0,9,4.04,9,9S96.96,80.5,92,80.5z" style="" fill="currentColor"></path><path d="M61,51.5v-3.738c0-3.453-2.691-6.262-6-6.262c-3.309,0-6,2.809-6,6.262V51.5h-3v16h18v-16H61z M55.968,60.326v3.207  c0,0.531-0.433,0.967-0.968,0.967s-0.968-0.436-0.968-0.967v-3.207C52.851,59.922,52,58.811,52,57.494c0-1.652,1.343-2.994,3-2.994  c1.656,0,3,1.341,3,2.994C58,58.811,57.15,59.924,55.968,60.326z M59,51.5h-8v-3.738c0-2.35,1.794-4.262,4-4.262s4,1.912,4,4.262  V51.5z" style="" fill="currentColor"></path></svg>