<svg id="Layer_1" data-name="Layer 1" xmlns="http://www.w3.org/2000/svg" xmlns:xlink="http://www.w3.org/1999/xlink" viewBox="0 0 683.2 209.29"><defs><style>.cls-1,.cls-4{fill:#fff;}.cls-2{fill:url(#New_Gradient_Swatch_1);}.cls-3{fill:url(#New_Gradient_Swatch_1-2);}.cls-4{stroke:#fff;stroke-miterlimit:10;stroke-width:0.66px;}</style><linearGradient id="New_Gradient_Swatch_1" x1="108.1" y1="90.01" x2="719.06" y2="90.01" gradientTransform="matrix(1, 0.07, -0.07, 1, -27.43, -67.51)" gradientUnits="userSpaceOnUse"><stop offset="0" stop-color="#f5eb17"/><stop offset="1" stop-color="#f5eb17" stop-opacity="0.1"/></linearGradient><linearGradient id="New_Gradient_Swatch_1-2" x1="113.44" y1="84.96" x2="476.53" y2="84.96" gradientTransform="translate(-40.82 -56.22)" xlink:href="#New_Gradient_Swatch_1"/></defs><path class="cls-1" d="M129.14,111.65h65.78a60.16,60.16,0,0,1,11.32.91,19.08,19.08,0,0,1,7.61,3,12.61,12.61,0,0,1,4.29,5.49,22.21,22.21,0,0,1,1.37,8.3v6.4q0,6.87-2.4,9.84a11.61,11.61,0,0,1-6.07,4,15,15,0,0,1,3.84,1.43,8.89,8.89,0,0,1,3,2.81,13.84,13.84,0,0,1,1.94,4.74,32.28,32.28,0,0,1,.69,7.27v6.86a20.72,20.72,0,0,1-1.32,7.89,11.43,11.43,0,0,1-4.23,5.21,20.24,20.24,0,0,1-7.61,2.92,60.09,60.09,0,0,1-11.32.91H129.14Zm17.39,14.18v18h48.73c3.05,0,5.15-.49,6.29-1.49s1.72-2.78,1.72-5.37V132c0-2.36-.71-4-2.12-4.86s-4-1.32-7.61-1.32Zm0,30.54v19.11h48.61q4.92,0,7-1.32t2.12-5v-4.8q0-4.8-1.89-6.41c-1.26-1.06-3.49-1.6-6.69-1.6Z" transform="translate(-47.75 -25.16)"/><path class="cls-1" d="M261,189.66a60.32,60.32,0,0,1-14.3-1.43,20.67,20.67,0,0,1-9.15-4.58,17.1,17.1,0,0,1-4.86-8.23,47.12,47.12,0,0,1-1.43-12.53V138.41A47.24,47.24,0,0,1,232.72,126a17.14,17.14,0,0,1,4.86-8.3,20.76,20.76,0,0,1,9.15-4.57,59.8,59.8,0,0,1,14.3-1.43h19.22V126.4H261a25,25,0,0,0-6.18.63,8.57,8.57,0,0,0-3.83,2,7.11,7.11,0,0,0-1.94,3.67,26.09,26.09,0,0,0-.52,5.71v5.27H315v13.84H248.56V163a26.78,26.78,0,0,0,.52,5.83A7.27,7.27,0,0,0,251,172.5a7.41,7.41,0,0,0,3.84,1.89,31.46,31.46,0,0,0,6.23.51h54.45v14.76Z" transform="translate(-47.75 -25.16)"/><path class="cls-1" d="M406,171.7H352l-11.1,18h-20l45.29-72.06a20.14,20.14,0,0,1,4.92-5.5c1.91-1.44,4.65-2.17,8.24-2.17s6.21.73,8.12,2.17a20.14,20.14,0,0,1,4.92,5.5l45.07,72.06H417.28Zm-45.87-13.38h37.75L379,127.55Z" transform="translate(-47.75 -25.16)"/><path class="cls-1" d="M469.79,189.66a60.32,60.32,0,0,1-14.3-1.43,20.67,20.67,0,0,1-9.15-4.58,17.1,17.1,0,0,1-4.86-8.23,46.71,46.71,0,0,1-1.43-12.53V138.41A46.82,46.82,0,0,1,441.48,126a17.14,17.14,0,0,1,4.86-8.3,20.76,20.76,0,0,1,9.15-4.57,59.8,59.8,0,0,1,14.3-1.43H523.9v15H470.59a28.43,28.43,0,0,0-6.58.63,8.47,8.47,0,0,0-4.06,2.12,8,8,0,0,0-2.06,3.94,27.11,27.11,0,0,0-.57,6v22.88a26.85,26.85,0,0,0,.57,6.06,8,8,0,0,0,2.06,3.89,8.08,8.08,0,0,0,4.12,2.06,32,32,0,0,0,6.63.57h53.2v14.87Z" transform="translate(-47.75 -25.16)"/><path class="cls-1" d="M564.27,189.66a60.37,60.37,0,0,1-14.3-1.43,20.67,20.67,0,0,1-9.15-4.58,17.18,17.18,0,0,1-4.86-8.23,47.12,47.12,0,0,1-1.43-12.53V138.41A47.24,47.24,0,0,1,536,126a17.22,17.22,0,0,1,4.86-8.3,20.76,20.76,0,0,1,9.15-4.57,59.85,59.85,0,0,1,14.3-1.43H593.9a60.38,60.38,0,0,1,14.41,1.43,20.66,20.66,0,0,1,9.15,4.57,17.23,17.23,0,0,1,4.87,8.3,47.24,47.24,0,0,1,1.43,12.46v24.48a47.12,47.12,0,0,1-1.43,12.53,17.19,17.19,0,0,1-4.87,8.23,20.56,20.56,0,0,1-9.15,4.58,60.91,60.91,0,0,1-14.41,1.43Zm42.1-50.44a24.47,24.47,0,0,0-.63-6.07,8.44,8.44,0,0,0-2.12-3.89,8.12,8.12,0,0,0-4.06-2.06,29.89,29.89,0,0,0-6.35-.57H565.07a32,32,0,0,0-6.69.57,8.16,8.16,0,0,0-4.06,2.06,7.63,7.63,0,0,0-2,3.89,30,30,0,0,0-.51,6.07v23a31.53,31.53,0,0,0,.51,6.23,7.28,7.28,0,0,0,2,3.89,8,8,0,0,0,4.06,1.95,35.66,35.66,0,0,0,6.69.51h28.14a33.3,33.3,0,0,0,6.35-.51,7.28,7.28,0,0,0,6.18-5.84,25.71,25.71,0,0,0,.63-6.23Z" transform="translate(-47.75 -25.16)"/><path class="cls-1" d="M719,191.38a14.74,14.74,0,0,1-5.09-.86,12.94,12.94,0,0,1-4.41-2.8l-56.85-53.54v55.48H636.56V117.14a6.16,6.16,0,0,1,2.58-5.44,11.55,11.55,0,0,1,6.69-1.77,13.12,13.12,0,0,1,4.92.8,9.81,9.81,0,0,1,3.2,2.06L711.26,168V111.65h16.47v72.52q0,3.89-2.4,5.55A10.9,10.9,0,0,1,719,191.38Z" transform="translate(-47.75 -25.16)"/><path class="cls-1" d="M127.49,233.26v-4.34h17.44a3.82,3.82,0,0,0,2-.39,1.74,1.74,0,0,0,.61-1.57v-1.24a1.8,1.8,0,0,0-.61-1.53,3.22,3.22,0,0,0-1.95-.46H134a12.26,12.26,0,0,1-3.18-.35,4.61,4.61,0,0,1-2-1.08,3.78,3.78,0,0,1-1-1.82,10.28,10.28,0,0,1-.29-2.57v-1.15a10.87,10.87,0,0,1,.37-3,4.27,4.27,0,0,1,3.17-3.11,10.78,10.78,0,0,1,3-.35h7.14v4.34h-6.67a2.73,2.73,0,0,0-1.73.45,2.35,2.35,0,0,0-.56,1.84v.74a2,2,0,0,0,.51,1.53,2.64,2.64,0,0,0,1.75.46H145.2a13.72,13.72,0,0,1,3.25.32,5.15,5.15,0,0,1,2.17,1,3.92,3.92,0,0,1,1.22,1.82,8.67,8.67,0,0,1,.37,2.66v1.82a9.15,9.15,0,0,1-.37,2.75,3.9,3.9,0,0,1-1.22,1.83,5.3,5.3,0,0,1-2.17,1,13.12,13.12,0,0,1-3.25.34Z" transform="translate(-47.75 -25.16)"/><path class="cls-1" d="M170.73,233.26a17.7,17.7,0,0,1-4.21-.42,6,6,0,0,1-2.69-1.35,5,5,0,0,1-1.44-2.42,13.88,13.88,0,0,1-.42-3.69v-7.2a14,14,0,0,1,.42-3.68,5,5,0,0,1,1.44-2.44,6.14,6.14,0,0,1,2.69-1.34,17.7,17.7,0,0,1,4.21-.42h8.72a17.86,17.86,0,0,1,4.24.42,6.18,6.18,0,0,1,2.7,1.34,5.09,5.09,0,0,1,1.43,2.44,14,14,0,0,1,.42,3.68v7.2a13.88,13.88,0,0,1-.42,3.69,5,5,0,0,1-1.43,2.42,6.08,6.08,0,0,1-2.7,1.35,17.86,17.86,0,0,1-4.24.42Zm12.39-14.85a7.34,7.34,0,0,0-.18-1.78,2.51,2.51,0,0,0-.63-1.15,2.45,2.45,0,0,0-1.19-.61,9,9,0,0,0-1.87-.16H171a9.7,9.7,0,0,0-2,.16,2.45,2.45,0,0,0-1.19.61,2.22,2.22,0,0,0-.59,1.15,8.75,8.75,0,0,0-.15,1.78v6.77a9.22,9.22,0,0,0,.15,1.83,2.15,2.15,0,0,0,.59,1.15,2.33,2.33,0,0,0,1.19.57,10.59,10.59,0,0,0,2,.15h8.29a9.88,9.88,0,0,0,1.87-.15,2.33,2.33,0,0,0,1.19-.57,2.41,2.41,0,0,0,.63-1.15,7.73,7.73,0,0,0,.18-1.83Z" transform="translate(-47.75 -25.16)"/><path class="cls-1" d="M203.76,224.64v8.62h-5.08V218.18a14,14,0,0,1,.42-3.68,5.09,5.09,0,0,1,1.43-2.44,6.14,6.14,0,0,1,2.69-1.34,17.82,17.82,0,0,1,4.21-.42h5.39v4.41h-5.25a4.07,4.07,0,0,0-3,.87,4.12,4.12,0,0,0-.84,2.9v1.82h19.37v4.34Z" transform="translate(-47.75 -25.16)"/><path class="cls-1" d="M239.59,233.26V214.71H230V210.3h24.42v4.41h-9.64v18.55Z" transform="translate(-47.75 -25.16)"/><path class="cls-1" d="M284.38,216.76l-7,14.82a4.21,4.21,0,0,1-1.26,1.58,3.25,3.25,0,0,1-2,.61,2.92,2.92,0,0,1-1.95-.61,4.1,4.1,0,0,1-1.11-1.58l-8.92-21.28h5.69l6.73,16.6,6.84-15.06a3.73,3.73,0,0,1,1.18-1.6,3.45,3.45,0,0,1,1.92-.45,3.61,3.61,0,0,1,1.95.45,3.44,3.44,0,0,1,1.18,1.6l6.56,15.06,7-16.6h5.59c-.27.58-.66,1.43-1.15,2.55s-1,2.38-1.65,3.76L302,221q-1,2.28-1.94,4.35L298.4,229l-1.09,2.54a4.13,4.13,0,0,1-1.18,1.58,2.84,2.84,0,0,1-1.85.61,3.22,3.22,0,0,1-2-.59,4.28,4.28,0,0,1-1.24-1.6Z" transform="translate(-47.75 -25.16)"/><path class="cls-1" d="M333.58,228h-15.9l-3.26,5.29h-5.9l13.34-21.21a6,6,0,0,1,1.45-1.62,3.92,3.92,0,0,1,2.42-.64,3.86,3.86,0,0,1,2.39.64,6,6,0,0,1,1.45,1.62l13.27,21.21h-5.93ZM320.07,224h11.12L325.63,215Z" transform="translate(-47.75 -25.16)"/><path class="cls-1" d="M370.32,233.26l-13.44-8.35v8.35H351.8v-23h18a24.56,24.56,0,0,1,4.14.3,6.83,6.83,0,0,1,2.81,1.08,4.41,4.41,0,0,1,1.6,2.12,9.7,9.7,0,0,1,.51,3.4v1.58a8.55,8.55,0,0,1-.54,3.28,4.52,4.52,0,0,1-1.67,2.06,7.37,7.37,0,0,1-2.85,1.06,23.93,23.93,0,0,1-4.07.3h-4l13.47,7.78Zm3.4-15.79a4.64,4.64,0,0,0-.2-1.48,1.64,1.64,0,0,0-.68-.88,3,3,0,0,0-1.31-.4,17.48,17.48,0,0,0-2.09-.1H356.88v7h12.56a17,17,0,0,0,2.07-.1,3.21,3.21,0,0,0,1.32-.41,1.67,1.67,0,0,0,.69-.87,4.82,4.82,0,0,0,.2-1.52Z" transform="translate(-47.75 -25.16)"/><path class="cls-1" d="M397.32,233.26a17.82,17.82,0,0,1-4.21-.42,6,6,0,0,1-2.69-1.35,5,5,0,0,1-1.43-2.42,13.88,13.88,0,0,1-.42-3.69v-7.2a14,14,0,0,1,.42-3.68,5.09,5.09,0,0,1,1.43-2.44,6.14,6.14,0,0,1,2.69-1.34,17.82,17.82,0,0,1,4.21-.42H403v4.34h-5.66a7.49,7.49,0,0,0-1.81.18,2.53,2.53,0,0,0-1.13.59,2.17,2.17,0,0,0-.58,1.08,8,8,0,0,0-.15,1.69v1.54h19.57v4.08H393.65v1.62a8.09,8.09,0,0,0,.15,1.71,2.23,2.23,0,0,0,.56,1.08,2.27,2.27,0,0,0,1.13.56,9.22,9.22,0,0,0,1.83.15h16v4.34Z" transform="translate(-47.75 -25.16)"/><path class="cls-1" d="M442.82,233.26v-4.34h17.44a3.84,3.84,0,0,0,2-.39,1.74,1.74,0,0,0,.6-1.57v-1.24a1.79,1.79,0,0,0-.6-1.53,3.27,3.27,0,0,0-2-.46H449.35a12.26,12.26,0,0,1-3.18-.35,4.71,4.71,0,0,1-2-1.08,3.85,3.85,0,0,1-1-1.82,10.28,10.28,0,0,1-.29-2.57v-1.15a10.51,10.51,0,0,1,.37-3,4.27,4.27,0,0,1,3.17-3.11,10.73,10.73,0,0,1,3-.35h7.14v4.34h-6.67a2.71,2.71,0,0,0-1.73.45,2.35,2.35,0,0,0-.56,1.84v.74a2,2,0,0,0,.51,1.53,2.62,2.62,0,0,0,1.75.46h10.74a13.78,13.78,0,0,1,3.25.32,5.15,5.15,0,0,1,2.17,1,3.9,3.9,0,0,1,1.21,1.82,8.37,8.37,0,0,1,.37,2.66v1.82a8.84,8.84,0,0,1-.37,2.75,3.89,3.89,0,0,1-1.21,1.83,5.3,5.3,0,0,1-2.17,1,13.17,13.17,0,0,1-3.25.34Z" transform="translate(-47.75 -25.16)"/><path class="cls-1" d="M486.06,233.26a17.7,17.7,0,0,1-4.21-.42,6.08,6.08,0,0,1-2.7-1.35,5,5,0,0,1-1.43-2.42,13.88,13.88,0,0,1-.42-3.69v-7.2a14,14,0,0,1,.42-3.68,5.09,5.09,0,0,1,1.43-2.44,6.18,6.18,0,0,1,2.7-1.34,17.7,17.7,0,0,1,4.21-.42h8.72a17.92,17.92,0,0,1,4.24.42,6.14,6.14,0,0,1,2.69,1.34,5.1,5.1,0,0,1,1.44,2.44,14,14,0,0,1,.42,3.68v7.2a13.88,13.88,0,0,1-.42,3.69,5,5,0,0,1-1.44,2.42,6,6,0,0,1-2.69,1.35,17.92,17.92,0,0,1-4.24.42Zm12.39-14.85a6.82,6.82,0,0,0-.19-1.78,2.41,2.41,0,0,0-.62-1.15,2.44,2.44,0,0,0-1.2-.61,8.91,8.91,0,0,0-1.87-.16h-8.28a9.63,9.63,0,0,0-2,.16,2.45,2.45,0,0,0-1.19.61,2.15,2.15,0,0,0-.59,1.15,8.66,8.66,0,0,0-.16,1.78v6.77a9.13,9.13,0,0,0,.16,1.83,2.08,2.08,0,0,0,.59,1.15,2.33,2.33,0,0,0,1.19.57,10.52,10.52,0,0,0,2,.15h8.28a9.73,9.73,0,0,0,1.87-.15,2.12,2.12,0,0,0,1.82-1.72,7.18,7.18,0,0,0,.19-1.83Z" transform="translate(-47.75 -25.16)"/><path class="cls-1" d="M522.76,233.26a17.76,17.76,0,0,1-4.21-.42,6,6,0,0,1-2.69-1.35,5,5,0,0,1-1.43-2.42,13.45,13.45,0,0,1-.43-3.69V210.3h5.09v14.88a6.86,6.86,0,0,0,.18,1.7,2.49,2.49,0,0,0,.66,1.14,2.71,2.71,0,0,0,1.26.66,8.1,8.1,0,0,0,2,.2h13.64v4.38Z" transform="translate(-47.75 -25.16)"/><path class="cls-1" d="M554.89,233.26a17.7,17.7,0,0,1-4.21-.42,6.08,6.08,0,0,1-2.7-1.35,5,5,0,0,1-1.43-2.42,13.88,13.88,0,0,1-.42-3.69V210.3h5.15v14.91a5.84,5.84,0,0,0,.22,1.77,2.38,2.38,0,0,0,2,1.73,9,9,0,0,0,1.94.17h7.71a9,9,0,0,0,1.94-.17,2.56,2.56,0,0,0,1.26-.6A2.5,2.5,0,0,0,567,227a6,6,0,0,0,.22-1.78V210.3h5.09v15.08a13.84,13.84,0,0,1-.43,3.69,5,5,0,0,1-1.43,2.42,6,6,0,0,1-2.69,1.35,17.92,17.92,0,0,1-4.24.42Z" transform="translate(-47.75 -25.16)"/><path class="cls-1" d="M591.15,233.26V214.71h-9.63V210.3h24.42v4.41H596.3v18.55Z" transform="translate(-47.75 -25.16)"/><path class="cls-1" d="M615.36,233.26v-23h5.12v23Z" transform="translate(-47.75 -25.16)"/><path class="cls-1" d="M639.85,233.26a17.7,17.7,0,0,1-4.21-.42,6.08,6.08,0,0,1-2.7-1.35,5,5,0,0,1-1.43-2.42,13.88,13.88,0,0,1-.42-3.69v-7.2a14,14,0,0,1,.42-3.68,5.09,5.09,0,0,1,1.43-2.44,6.18,6.18,0,0,1,2.7-1.34,17.7,17.7,0,0,1,4.21-.42h8.72a17.92,17.92,0,0,1,4.24.42,6.14,6.14,0,0,1,2.69,1.34,5.1,5.1,0,0,1,1.44,2.44,14,14,0,0,1,.42,3.68v7.2a13.88,13.88,0,0,1-.42,3.69,5,5,0,0,1-1.44,2.42,6,6,0,0,1-2.69,1.35,17.92,17.92,0,0,1-4.24.42Zm12.39-14.85a6.82,6.82,0,0,0-.19-1.78,2.41,2.41,0,0,0-.62-1.15,2.44,2.44,0,0,0-1.2-.61,8.91,8.91,0,0,0-1.87-.16h-8.28a9.63,9.63,0,0,0-2,.16,2.45,2.45,0,0,0-1.19.61,2.15,2.15,0,0,0-.59,1.15,8.66,8.66,0,0,0-.16,1.78v6.77a9.13,9.13,0,0,0,.16,1.83,2.08,2.08,0,0,0,.59,1.15,2.33,2.33,0,0,0,1.19.57,10.52,10.52,0,0,0,2,.15h8.28a9.73,9.73,0,0,0,1.87-.15,2.12,2.12,0,0,0,1.82-1.72,7.18,7.18,0,0,0,.19-1.83Z" transform="translate(-47.75 -25.16)"/><path class="cls-1" d="M692.14,233.77a4.3,4.3,0,0,1-1.5-.26,3.61,3.61,0,0,1-1.29-.82l-16.74-15.76v16.33h-4.75V211.91a1.8,1.8,0,0,1,.76-1.6,3.37,3.37,0,0,1,2-.52A3.79,3.79,0,0,1,672,210a2.87,2.87,0,0,1,.94.6l16.87,16.27V210.3h4.85v21.34a1.86,1.86,0,0,1-.71,1.64A3.24,3.24,0,0,1,692.14,233.77Z" transform="translate(-47.75 -25.16)"/><path class="cls-1" d="M704.67,233.26v-4.34h17.44a3.84,3.84,0,0,0,2-.39,1.74,1.74,0,0,0,.6-1.57v-1.24a1.79,1.79,0,0,0-.6-1.53,3.27,3.27,0,0,0-2-.46H711.2a12.26,12.26,0,0,1-3.18-.35,4.71,4.71,0,0,1-2-1.08,3.85,3.85,0,0,1-1-1.82,10.28,10.28,0,0,1-.29-2.57v-1.15a10.51,10.51,0,0,1,.37-3,4.27,4.27,0,0,1,3.17-3.11,10.73,10.73,0,0,1,3-.35h7.14v4.34h-6.67a2.73,2.73,0,0,0-1.73.45,2.35,2.35,0,0,0-.56,1.84v.74a2,2,0,0,0,.51,1.53,2.62,2.62,0,0,0,1.75.46h10.74a13.78,13.78,0,0,1,3.25.32,5.15,5.15,0,0,1,2.17,1,3.9,3.9,0,0,1,1.21,1.82,8.37,8.37,0,0,1,.37,2.66v1.82a8.84,8.84,0,0,1-.37,2.75,3.89,3.89,0,0,1-1.21,1.83,5.3,5.3,0,0,1-2.17,1,13.17,13.17,0,0,1-3.25.34Z" transform="translate(-47.75 -25.16)"/><polygon class="cls-2" points="71.33 61.36 683.2 71.89 669.01 43.66 71.33 61.36"/><polygon class="cls-3" points="72.63 57.48 435.71 23.82 415.07 0 72.63 57.48"/><path class="cls-4" d="M48.63,226.76c-.28.07-.56,0-.55-.31.46-17.36,3-66.13,3.09-81.91.08-9.13,0-18.27,0-27.82-2.74-.73-2.9-3.7-2.62-7.06a39.28,39.28,0,0,0,0-5.74c-.14-2.22.75-3.08,2.46-3.27s3.61-.52,5.65-.82c0-7.13.35-14.27-.15-21.32-.22-3.12-2.15-6.06-3.36-9.25C58.76,65,64.26,60.78,69.81,56.65a4.15,4.15,0,0,0,1.89-4.14,52.6,52.6,0,0,1,0-7.32c.15-2.23,1.11-3.91,3.32-3.74s3.26,1.68,2.88,4.06c-1.16,7.18,1.25,11.7,6.89,14.79,3.65,2,6.91,5,10.23,7.8a3.52,3.52,0,0,1,1,2.8C91.09,80,94,90.07,93,99.77c2.35.33,4.39.69,6.45.87,1.59.14,2.34.86,2.33,2.83,0,3.14.3,6.3.15,9.43a4.38,4.38,0,0,1-1.68,3,3.27,3.27,0,0,0-1.59,3.32c.31,16.26.43,32.53.85,48.78.09,3.44,2.65,44.48,2.84,65.3C81.91,237.33,53.43,225.56,48.63,226.76ZM84,99.32v-22H76v22Zm-18-22v22h7.8v-22Zm-7.4,0v22.77l5-.47V77.28ZM91,77.45h-5V99.52l5,.48Zm2.35,27.09v4.56l6.54.79v-5.72Zm-36.83-.22H50.78v5.61l5.71-.83Zm19.44,4.34h8.2V105.1h-8.2Zm-2.09-3.6H66v3.59h7.81Zm-10.21-.14c-.94,0-1.71,0-2.47,0s-1.67.08-2.56.13c0,.84-.1,1.43-.07,2s.12,1.32.19,2C63.86,109.55,63.92,109.51,63.63,104.92Zm22.29.12c-.18,4.18.71,4.8,5,3.8V105ZM76,111.2v.62h8.09l0-.62Zm-2.29.81v-.62H66V112ZM66,102.13v.57H73.7v-.57Zm17.93.56-.07-.49H75.94l0,.93Z" transform="translate(-47.75 -25.16)"/></svg>