<svg xmlns="http://www.w3.org/2000/svg" xmlns:xlink="http://www.w3.org/1999/xlink" version="1.1" x="0px" y="0px" viewBox="0 0 32 32" enable-background="new 0 0 32 32" xml:space="preserve" style="max-width:100%" height="100%"><g style="" fill="currentColor"><g style="" fill="currentColor"><path fill="currentColor" d="M16,31.3C7.6,31.3,0.8,24.4,0.8,16S7.6,0.8,16,0.8S31.3,7.6,31.3,16S24.4,31.3,16,31.3z M16,2.3    C8.4,2.3,2.3,8.4,2.3,16S8.4,29.8,16,29.8S29.8,23.6,29.8,16S23.6,2.3,16,2.3z" style=""></path></g><g style="" fill="currentColor"><path fill="currentColor" d="M12.9,26.2L5,18.3l4.6-4.6l3.3,3.3l9.4-9.4l4.6,4.6L12.9,26.2z M7.2,18.3l5.8,5.8l11.9-11.9l-2.5-2.5    L13,19.1l-3.3-3.3L7.2,18.3z" style=""></path></g></g></svg>