<svg xmlns="http://www.w3.org/2000/svg" xmlns:xlink="http://www.w3.org/1999/xlink" version="1.1" x="0px" y="0px" viewBox="0 0 100 100" style="enable-background:new 0 0 100 100;max-width:100%" xml:space="preserve" height="100%"><path d="M50.5263672,70.34375C61.5478516,64.9389648,67.375,53.5673828,66.5126953,39.1445312  c-0.0117188-0.1933594-0.0209961-0.328125-0.0209961-0.3930664c0.0068359-0.2695312-0.0957031-0.5297852-0.2836914-0.7226562  c-0.1884766-0.1928711-0.4462891-0.3017578-0.7158203-0.3017578c-6.0698242,0-6.3383789-3.9633789-6.3491211-4.4077148  c-0.0043945-0.5488281-0.4506836-0.9916992-1-0.9916992H41.9291992c-0.5493164,0-0.9956055,0.4428711-1,0.9916992  c-0.0014648,0.1801758-0.1074219,4.4077148-6.3496094,4.4077148c-0.2661133,0-0.5209961,0.1137695-0.7089844,0.3027344  c-0.1875,0.1884766-0.2919922,0.4521484-0.2910156,0.7182617c0.0004883,0.0678711-0.0078125,0.199707-0.0185547,0.3881836  C32.75,53.559082,38.612793,64.9335938,49.6455078,70.34375c0.1391602,0.0678711,0.2895508,0.1020508,0.4404297,0.1020508  S50.387207,70.4116211,50.5263672,70.34375z M35.534668,39.6967773c5.4033203-0.3505859,6.859375-3.6699219,7.2509766-5.3691406  h14.5009766c0.3916016,1.699707,1.8481445,5.0200195,7.253418,5.3696289  c0.909668,17.8349609-8.4414062,25.5410156-14.4541016,28.6298828C44.065918,65.2353516,34.6938477,57.5273438,35.534668,39.6967773  z" style="" fill="currentColor"></path><path d="M20.4335938,83.746582c-0.4691162-2.4273071-2.604187-4.2675781-5.1665039-4.2675781  C12.362793,79.4790039,10,81.8417969,10,84.746582c0,2.9042969,2.362793,5.2670898,5.2670898,5.2670898  c2.5623169,0,4.6973267-1.84021,5.1665039-4.2670898h11.6079102c0.2939453,0,0.5732422-0.1293945,0.7631836-0.3540039  l8.6732788-10.2509155C44.1559448,76.0479126,47.0199585,76.546875,50,76.546875  c2.9801636,0,5.8442993-0.4990234,8.5223999-1.4053345l8.6729126,10.2510376  c0.1899414,0.2246094,0.4692383,0.3540039,0.7631836,0.3540039h11.6079102  c0.4691772,2.4268799,2.604187,4.2670898,5.1665039,4.2670898C87.637207,90.0136719,90,87.6508789,90,84.746582  c0-2.9047852-2.362793-5.2675781-5.2670898-5.2675781c-2.5623169,0-4.6973877,1.840271-5.1665039,4.2675781h-11.144043  l-7.9191284-9.3598633c9.1761475-3.9493408,15.7039185-12.9071045,16.1274414-23.4121094h2.9257812  c0.4304199,2.4747925,2.5803223,4.3662109,5.1764526,4.3662109C87.637207,55.3408203,90,52.9780273,90,50.0732422  c0-2.9042969-2.362793-5.2670898-5.2670898-5.2670898c-2.5275269,0-4.6411743,1.7904663-5.1484375,4.168457h-2.9494629  c-0.3552856-10.4697266-6.7730103-19.4229736-15.848938-23.4559326l7.8482056-9.2769775h10.9321289  c0.4691162,2.4273071,2.604187,4.2675781,5.1665039,4.2675781C87.637207,20.5092773,90,18.1464844,90,15.2416992  c0-2.9042969-2.362793-5.2670898-5.2670898-5.2670898c-2.5623169,0-4.6973267,1.84021-5.1665039,4.2670898H68.1704102  c-0.2939453,0-0.5732422,0.1293945-0.7636719,0.3540039l-8.5811157,10.1428833  C56.0614014,23.765686,53.0927124,23.2304688,50,23.2304688s-6.0614014,0.5352173-8.8256226,1.5081177l-8.5811157-10.1428833  c-0.1904297-0.2246094-0.4697266-0.3540039-0.7636719-0.3540039H20.4335938  c-0.4691772-2.4268799-2.604187-4.2670898-5.1665039-4.2670898C12.362793,9.9746094,10,12.3374023,10,15.2416992  c0,2.9047852,2.362793,5.2675781,5.2670898,5.2675781c2.5623169,0,4.6973877-1.840271,5.1665039-4.2675781h10.9321289  l7.8482056,9.2769775c-9.0759277,4.032959-15.4936523,12.9862061-15.848938,23.4559326h-2.9494629  c-0.5072632-2.3779907-2.6209106-4.168457-5.1484375-4.168457C12.362793,44.8061523,10,47.1689453,10,50.0732422  c0,2.9047852,2.362793,5.2675781,5.2670898,5.2675781c2.5961304,0,4.7460327-1.8914185,5.1764526-4.3662109h2.9257812  c0.4235229,10.505127,6.951416,19.4630127,16.1277466,23.4122925l-7.9194336,9.3596802H20.4335938z M15.2670898,88.0136719  C13.4658203,88.0136719,12,86.5478516,12,84.746582c0-1.8017578,1.4658203-3.2675781,3.2670898-3.2675781  c1.8017578,0,3.2675781,1.4658203,3.2675781,3.2675781C18.534668,86.5478516,17.0688477,88.0136719,15.2670898,88.0136719z   M84.7329102,81.4790039C86.5341797,81.4790039,88,82.9448242,88,84.746582c0,1.8012695-1.4658203,3.2670898-3.2670898,3.2670898  c-1.8017578,0-3.2675781-1.4658203-3.2675781-3.2670898C81.465332,82.9448242,82.9311523,81.4790039,84.7329102,81.4790039z   M84.7329102,46.8061523C86.5341797,46.8061523,88,48.2719727,88,50.0732422c0,1.8017578-1.4658203,3.2675781-3.2670898,3.2675781  c-1.8017578,0-3.2675781-1.4658203-3.2675781-3.2675781C81.465332,48.2719727,82.9311523,46.8061523,84.7329102,46.8061523z   M84.7329102,11.9746094C86.5341797,11.9746094,88,13.4404297,88,15.2416992c0,1.8017578-1.4658203,3.2675781-3.2670898,3.2675781  c-1.8017578,0-3.2675781-1.4658203-3.2675781-3.2675781C81.465332,13.4404297,82.9311523,11.9746094,84.7329102,11.9746094z   M15.2670898,18.5092773C13.4658203,18.5092773,12,17.043457,12,15.2416992c0-1.8012695,1.4658203-3.2670898,3.2670898-3.2670898  c1.8017578,0,3.2675781,1.4658203,3.2675781,3.2670898C18.534668,17.043457,17.0688477,18.5092773,15.2670898,18.5092773z   M15.2670898,53.3408203C13.4658203,53.3408203,12,51.875,12,50.0732422c0-1.8012695,1.4658203-3.2670898,3.2670898-3.2670898  c1.8017578,0,3.2675781,1.4658203,3.2675781,3.2670898C18.534668,51.875,17.0688477,53.3408203,15.2670898,53.3408203z   M25.3417969,49.8886719c0-13.5966797,11.0615234-24.6582031,24.6582031-24.6582031s24.6582031,11.0615234,24.6582031,24.6582031  S63.5966797,74.546875,50,74.546875S25.3417969,63.4853516,25.3417969,49.8886719z" style="" fill="currentColor"></path></svg>