<svg xmlns:x="http://ns.adobe.com/Extensibility/1.0/" xmlns:i="http://ns.adobe.com/AdobeIllustrator/10.0/" xmlns:graph="http://ns.adobe.com/Graphs/1.0/" xmlns="http://www.w3.org/2000/svg" xmlns:xlink="http://www.w3.org/1999/xlink" version="1.1" x="0px" y="0px" viewBox="0 0 70 70" style="enable-background:new 0 0 70 70;max-width:100%" xml:space="preserve" height="100%"><metadata style="" fill="currentColor"><!--?xpacket begin="&#65279;" id="W5M0MpCehiHzreSzNTczkc9d"?--><x:xmpmeta xmlns:x="adobe:ns:meta/" x:xmptk="Adobe XMP Core 5.6-c145 79.163499, 2018/08/13-16:40:22        " style="" fill="currentColor"></x:xmpmeta><!--?xpacket end="w"?--></metadata><path d="M59.4150391,17.0917969c-1.8662109-4.8144531-4.9785156-8.7250977-9.2490234-11.6235352  c-4.4394531-3.015625-9.8935547-4.3286133-15.3525391-3.6923828C27.8046875,2.590332,21.9355469,6.0405273,17.3691406,12.0307617  c-1.7099609,2.2421875-2.9453125,4.9829102-3.8876953,8.6254883c-0.828125,3.2006836-2.3125,6.3881836-4.4121094,9.4746094  c-0.3105469,0.456543-0.1923828,1.0786133,0.2646484,1.3891602c0.4570312,0.3120117,1.0800781,0.1918945,1.3896484-0.2641602  c2.2285156-3.2773438,3.8085938-6.6748047,4.6933594-10.0986328c0.8740234-3.3759766,1.9990234-5.8901367,3.5419922-7.9135742  c4.2246094-5.5419922,9.6367188-8.7319336,16.0849609-9.4814453c4.9833984-0.5766602,9.9550781,0.6152344,13.9990234,3.3603516  c3.9833984,2.7041016,6.765625,6.2016602,8.5068359,10.6923828c1.6464844,4.2441406,1.9941406,9.1157227,1.0048828,14.0883789  c-0.7128906,3.5820312-0.7705078,6.7612305-0.1699219,9.4501953c0.1035156,0.4658203,0.5166016,0.7822266,0.9746094,0.7822266  c0.0722656,0,0.1455078-0.0078125,0.21875-0.0239258c0.5390625-0.1201172,0.8789062-0.6547852,0.7578125-1.1938477  c-0.5380859-2.4155273-0.4785156-5.3168945,0.1796875-8.6240234C61.5800781,26.9477539,61.1992188,21.690918,59.4150391,17.0917969z  " style="" fill="currentColor"></path><path d="M55.3994141,30.4526367c1.1025391-6.3300781-0.4306641-11.8374023-4.5566406-16.3686523  c-3.7675781-4.1396484-9.3916016-6.4350586-15.0751953-6.144043c-7.5478516,0.3891602-12.7617188,4.2905273-15.9394531,11.9267578  c-0.0234375,0.0561523-0.0419922,0.1137695-0.0546875,0.1728516c-1.6865234,7.7973633-5.0263672,13.5126953-10.5087891,17.9853516  c-0.4287109,0.3491211-0.4921875,0.9790039-0.1425781,1.4072266c0.3486328,0.4272461,0.9775391,0.4912109,1.40625,0.1425781  c5.8320312-4.7573242,9.3867188-10.8041992,11.1806641-19.0224609c2.8544922-6.7983398,7.4882812-10.2709961,14.1621094-10.6152344  c5.0830078-0.2631836,10.1230469,1.7919922,13.4931641,5.4936523c3.7294922,4.0957031,5.0615234,8.8823242,4.0732422,14.6298828  c-2.4335938,8.7080078-1.2695312,14.3222656,0.0136719,18.9023438c0.1240234,0.4414062,0.5253906,0.7304688,0.9619141,0.7304688  c0.0898438,0,0.1806641-0.012207,0.2705078-0.0375977c0.5322266-0.1489258,0.8427734-0.7006836,0.6933594-1.2329102  c-1.2675781-4.5253906-2.3125-9.6328125,0-17.871582C55.3857422,30.519043,55.3935547,30.4858398,55.3994141,30.4526367z" style="" fill="currentColor"></path><path d="M51.2539062,56.0136719c0.1240234,0,0.25-0.0234375,0.3710938-0.0722656  c0.5126953-0.2050781,0.7626953-0.7871094,0.5576172-1.2998047l-2.9892578-7.4707031  c-1.2675781-6.4228516-1.2880859-11.9350586-0.0634766-16.8491211c0.9462891-3.800293,0.3320312-7.65625-1.6865234-10.5795898  l-0.2099609-0.2983398c-3.3291016-4.5683594-9.2626953-6.4692383-14.4238281-4.6274414  c-4.4785156,1.5986328-7.7011719,5.5009766-9.6005859,11.6787109c-1.5429688,7.0517578-5.7138672,13.1401367-12.3974609,18.0966797  c-0.4433594,0.3291016-0.5361328,0.9550781-0.2080078,1.3989258c0.3291016,0.4438477,0.9560547,0.5356445,1.3994141,0.2075195  c7.0830078-5.2529297,11.5107422-11.7382812,13.1386719-19.1948242c1.7060547-5.5385742,4.4345703-8.9091797,8.3398438-10.3032227  c4.3378906-1.5493164,9.3251953,0.065918,12.1328125,3.918457l0.1835938,0.2602539  c1.6923828,2.4506836,2.1992188,5.7163086,1.390625,8.9594727C45.8857422,35.0678711,45.90625,40.8945312,47.25,47.6508789  c0.0117188,0.0605469,0.0292969,0.1196289,0.0517578,0.1767578l3.0234375,7.5571289  C50.4814453,55.7753906,50.8574219,56.0136719,51.2539062,56.0136719z" style="" fill="currentColor"></path><path d="M20.7519531,60.6845703c0.1455078,0,0.2929688-0.0317383,0.4326172-0.0991211  c9.8828125-4.7568359,18.4414062-16.7529297,22.8935547-32.0893555c0.578125-1.9873047,0.2509766-4.1240234-0.8955078-5.8618164  c-1.1582031-1.7553711-3.0166016-2.9082031-5.1005859-3.1630859c-3.484375-0.4311523-6.7978516,1.7978516-7.7167969,5.1694336  C27.9658203,33.449707,21.875,44.3291016,13.6787109,48.7753906c-0.4853516,0.2631836-0.6660156,0.8701172-0.4023438,1.355957  c0.2617188,0.484375,0.8701172,0.6660156,1.3554688,0.4018555c8.7158203-4.7275391,15.1513672-16.1469727,17.6630859-25.3666992  c0.6591797-2.421875,3.046875-4.0185547,5.5449219-3.7099609c1.5,0.1835938,2.8388672,1.0141602,3.6738281,2.2792969  c0.8232422,1.2475586,1.0576172,2.7792969,0.6445312,4.2026367C37.8603516,42.7382812,29.6962891,54.269043,20.3173828,58.7836914  c-0.4980469,0.2392578-0.7070312,0.8369141-0.4677734,1.3344727C20.0224609,60.4760742,20.3798828,60.6850586,20.7519531,60.6845703  z" style="" fill="currentColor"></path><path d="M36.8466797,28.1342773c0.1035156-0.5419922-0.2509766-1.0664062-0.7929688-1.1708984  c-0.5478516-0.1025391-1.0664062,0.2509766-1.171875,0.7929688c-2.4960938,12.9604492-8.8388672,21.8540039-19.3916016,27.1884766  c-0.4931641,0.2495117-0.6904297,0.8510742-0.4414062,1.34375c0.1757812,0.3481445,0.5283203,0.5488281,0.8935547,0.5488281  c0.1513672,0,0.3056641-0.034668,0.4501953-0.1074219C27.3798828,51.175293,34.2617188,41.5541992,36.8466797,28.1342773z" style="" fill="currentColor"></path><path d="M47.0576172,60.4663086c0.4306641,0.3452148,1.0625,0.2729492,1.4052734-0.1582031  c0.34375-0.4321289,0.2734375-1.0610352-0.1591797-1.4052734c-3.5146484-2.8017578-4.5634766-7.90625-5.125-12.5292969  c-0.0576172-0.4672852-0.4326172-0.8320312-0.9013672-0.875c-0.4628906-0.0424805-0.9033203,0.2456055-1.0458984,0.6948242  c-2.1474609,6.8144531-7.3203125,12.4243164-15.8144531,17.1513672c-0.4824219,0.2685547-0.65625,0.8779297-0.3876953,1.3603516  c0.1826172,0.3286133,0.5234375,0.5136719,0.875,0.5136719c0.1640625,0,0.3310547-0.0405273,0.4853516-0.1259766  c7.5029297-4.1757812,12.5654297-9.0507812,15.3691406-14.8256836  C42.5302734,54.168457,43.9521484,57.9912109,47.0576172,60.4663086z" style="" fill="currentColor"></path><path d="M40.7861328,60.2954102c-0.1572266-0.4174805-0.5771484-0.6855469-1.0166016-0.6455078  c-0.4453125,0.0356445-0.8125,0.3623047-0.9003906,0.800293c-0.4726562,2.3588867-2.4189453,4.2158203-6.3105469,6.0214844  c-0.5009766,0.2324219-0.71875,0.8271484-0.4863281,1.328125c0.1689453,0.3647461,0.5302734,0.5791016,0.9082031,0.5791016  c0.140625,0,0.2841797-0.0297852,0.4199219-0.0927734c2.3720703-1.1005859,5.078125-2.6313477,6.5302734-5.0957031  c0.7841797,1.2280273,2.0732422,2.3662109,4.5410156,2.8354492c0.5400391,0.105957,1.0664062-0.2539062,1.1689453-0.7954102  c0.1035156-0.5424805-0.2529297-1.0664062-0.7958984-1.1694336C41.9931641,63.5185547,41.4335938,62.0249023,40.7861328,60.2954102z  " style="" fill="currentColor"></path></svg>