<svg xmlns="http://www.w3.org/2000/svg" xmlns:xlink="http://www.w3.org/1999/xlink" version="1.1" x="0px" y="0px" viewBox="0 0 100 100" style="enable-background:new 0 0 100 100;max-width:100%" xml:space="preserve" height="100%"><style type="text/css" style="" fill="currentColor">
	.st0{fill:none;stroke:currentColor;stroke-width:2;stroke-linecap:round;stroke-linejoin:round;stroke-miterlimit:10;}
	.st1{fill:none;stroke:currentColor;stroke-width:2;stroke-miterlimit:10;}
	.st2{stroke:currentColor;stroke-width:2;stroke-linecap:round;stroke-linejoin:round;stroke-miterlimit:10;}
	.st3{fill:none;stroke:currentColor;stroke-linecap:round;stroke-linejoin:round;stroke-miterlimit:10;}
</style><path d="M18.5,88c0.6,0,1-0.4,1-1v-6.6h7.2V87c0,0.6,0.4,1,1,1s1-0.4,1-1v-6.6h7.2V87c0,0.6,0.4,1,1,1s1-0.4,1-1v-6.6h7.2V87  c0,0.6,0.4,1,1,1s1-0.4,1-1v-6.6h7.2V87c0,0.6,0.4,1,1,1s1-0.4,1-1v-6.6h7.2V87c0,0.6,0.4,1,1,1s1-0.4,1-1v-6.6h7.2V87  c0,0.6,0.4,1,1,1s1-0.4,1-1v-6.6H82V87c0,0.6,0.4,1,1,1s1-0.4,1-1V14.7c0-0.6-0.4-1-1-1s-1,0.4-1,1v5.1h-7.2v-5.1c0-0.6-0.4-1-1-1  s-1,0.4-1,1v5.1h-7.2v-5.1c0-0.6-0.4-1-1-1s-1,0.4-1,1v5.1h-7.2v-5.1c0-0.6-0.4-1-1-1s-1,0.4-1,1v5.1h-7.2v-5.1c0-0.6-0.4-1-1-1  s-1,0.4-1,1v5.1h-7.2v-5.1c0-0.6-0.4-1-1-1s-1,0.4-1,1v5.1h-7.2v-5.1c0-0.6-0.4-1-1-1s-1,0.4-1,1v5.1h-7.2v-5.1c0-0.6-0.4-1-1-1  s-1,0.4-1,1V87C17.5,87.5,17.9,88,18.5,88z M37.9,78.4V58.9h7.2v19.5H37.9z M45.1,56.9h-7.2v-7.4h7.2V56.9z M82,21.8v56.6h-7.2V21.8  H82z M72.7,21.8v56.6h-7.2V21.8H72.7z M63.5,21.8v56.6h-7.2V21.8H63.5z M54.3,21.8v56.6h-7.2V21.8H54.3z M45.1,21.8v25.8h-7.2V21.8  H45.1z M35.9,21.8v56.6h-7.2V21.8H35.9z M26.7,21.8v56.6h-7.2V21.8H26.7z" style="" fill="currentColor"></path><path d="M41,53.7v0.9c0,0.3,0.2,0.5,0.5,0.5s0.5-0.2,0.5-0.5v-0.9c0.2-0.1,0.4-0.4,0.4-0.6c0.1-0.5-0.3-1-0.8-1.1  c-0.5-0.1-1,0.3-1.1,0.8C40.5,53.1,40.7,53.5,41,53.7z" style="" fill="currentColor"></path></svg>