<svg xmlns="http://www.w3.org/2000/svg" xmlns:xlink="http://www.w3.org/1999/xlink" version="1.1" x="0px" y="0px" viewBox="0 0 32 32" enable-background="new 0 0 32 32" xml:space="preserve" style="max-width:100%" height="100%"><g style="" fill="currentColor"><g style="" fill="currentColor"><path fill="currentColor" d="M16,31.3C7.6,31.3,0.8,24.4,0.8,16S7.6,0.8,16,0.8s15.3,6.8,15.3,15.3C31.3,24.4,24.4,31.3,16,31.3z     M16,2.3C8.4,2.3,2.3,8.4,2.3,16S8.4,29.8,16,29.8S29.8,23.6,29.8,16S23.6,2.3,16,2.3z" style=""></path></g><g style="" fill="currentColor"><rect x="15.3" y="3.1" fill="currentColor" width="1.5" height="2.1" style=""></rect></g><g style="" fill="currentColor"><rect x="15.3" y="26.8" fill="currentColor" width="1.5" height="2.1" style=""></rect></g><g style="" fill="currentColor"><rect x="26.8" y="15.3" fill="currentColor" width="2.1" height="1.5" style=""></rect></g><g style="" fill="currentColor"><rect x="3.1" y="15.3" fill="currentColor" width="2.1" height="1.5" style=""></rect></g><g style="" fill="currentColor"><polygon fill="currentColor" points="20.8,21.9 15.3,16.3 15.3,7.2 16.8,7.2 16.8,15.7 21.9,20.8   " style=""></polygon></g></g></svg>