<svg xmlns="http://www.w3.org/2000/svg" xmlns:xlink="http://www.w3.org/1999/xlink" version="1.1" x="0px" y="0px" viewBox="0 0 90 90" enable-background="new 0 0 90 90" xml:space="preserve" style="max-width:100%" height="100%"><g style="" fill="currentColor"><g style="" fill="currentColor"><path d="M62.4,51.4c-1-0.5-2.2,0-2.6,1c0,0.1-4.1,9-14.3,9.1c-0.1,0-0.1,0-0.2,0c-9.6,0-13.7-8.8-13.9-9.2c-0.5-1-1.6-1.4-2.6-1    c-1,0.5-1.5,1.6-1,2.6c0.2,0.5,5.3,11.5,17.6,11.5c0.1,0,0.2,0,0.2,0c12.7-0.2,17.7-11,17.9-11.5C63.8,53.1,63.4,51.9,62.4,51.4z     M45.5,13.5c-17.7,0-32,14.3-32,32c0,17.7,14.3,32,32,32s32-14.3,32-32C77.5,27.8,63.2,13.5,45.5,13.5z M45.5,73.5    c-15.4,0-28-12.6-28-28c0-15.4,12.6-28,28-28c15.4,0,28,12.6,28,28C73.5,60.9,61,73.5,45.5,73.5z M35.5,43.5c2.2,0,4-1.8,4-4    c0-2.2-1.8-4-4-4c-2.2,0-4,1.8-4,4C31.5,41.7,33.3,43.5,35.5,43.5z M55.5,43.5c2.2,0,4-1.8,4-4c0-2.2-1.8-4-4-4c-2.2,0-4,1.8-4,4    C51.5,41.7,53.3,43.5,55.5,43.5z" style="" fill="currentColor"></path></g></g></svg>