<svg xmlns="http://www.w3.org/2000/svg" xmlns:xlink="http://www.w3.org/1999/xlink" version="1.1" x="0px" y="0px" viewBox="0 0 32 32" enable-background="new 0 0 32 32" xml:space="preserve" style="max-width:100%" height="100%"><g style="" fill="currentColor"><g style="" fill="currentColor"><path fill="currentColor" d="M16.8,31.3h-1.5c0-1.7,1.4-3.1,3.1-3.1h6c0.9,0,1.5-0.7,1.5-1.5v-1.5h1.5v1.5c0,1.7-1.4,3.1-3.1,3.1h-6    C17.5,29.7,16.8,30.4,16.8,31.3z" style=""></path></g><g style="" fill="currentColor"><path fill="currentColor" d="M26.6,25.9c-1.6,0-2.9-1.3-2.9-2.9v-5.3c0-1.6,1.3-2.9,2.9-2.9c1.6,0,2.9,1.3,2.9,2.9V23    C29.5,24.6,28.2,25.9,26.6,25.9z M26.6,16.3c-0.7,0-1.3,0.6-1.3,1.3V23c0,0.7,0.6,1.3,1.3,1.3S28,23.7,28,23v-5.3    C28,16.9,27.4,16.3,26.6,16.3z" style=""></path></g><g style="" fill="currentColor"><rect x="28.7" y="19.6" fill="currentColor" width="2.1" height="1.5" style=""></rect></g><g style="" fill="currentColor"><path fill="currentColor" d="M5.4,25.9c-1.6,0-2.9-1.3-2.9-2.9v-5.3c0-1.6,1.3-2.9,2.9-2.9c1.6,0,2.9,1.3,2.9,2.9V23    C8.3,24.6,7,25.9,5.4,25.9z M5.4,16.3c-0.7,0-1.3,0.6-1.3,1.3V23c0,0.7,0.6,1.3,1.3,1.3s1.3-0.6,1.3-1.3v-5.3    C6.7,16.9,6.1,16.3,5.4,16.3z" style=""></path></g><g style="" fill="currentColor"><rect x="1.1" y="19.6" fill="currentColor" width="2.1" height="1.5" style=""></rect></g><g style="" fill="currentColor"><path fill="currentColor" d="M27.4,15.6h-1.5v-3.4c0-5.4-4.4-9.8-9.8-9.8c-5.4,0-9.8,4.4-9.8,9.8v3.4H4.6v-3.4C4.6,5.9,9.7,0.8,16,0.8    c6.3,0,11.4,5.1,11.4,11.4V15.6z" style=""></path></g></g></svg>